# Blender 4.0.2
# www.blender.org
mtllib chair-AZ.mtl
o Cube
v -1.100000 -1.820892 1.000000
v -1.068442 2.018009 0.856575
v -1.100000 -2.067920 -1.000000
v -1.100000 1.979522 -1.000000
v 1.100000 -1.979294 1.000000
v -0.591616 -1.856055 0.633238
v 1.100000 -1.878090 -1.000000
v -0.578242 2.018291 0.595967
v -1.068442 0.062190 0.866705
v -1.100000 -0.136251 -1.000000
v 1.100000 -0.031606 -1.000000
v 1.100000 -0.058747 1.000000
v -0.841993 -2.067920 -1.000000
v -0.841993 1.872478 -0.999729
v -0.841993 -1.959672 1.000000
v -0.820999 1.977628 0.907455
v -0.820768 0.013174 0.913702
v -0.841993 -0.236374 -1.000000
v -1.100000 -0.436718 -1.000000
v 1.100000 -0.216600 -1.000000
v 1.100000 -0.305559 1.000000
v -1.086424 -0.217997 0.953021
v -0.841993 -0.484273 -1.000000
v -0.836312 -0.287801 0.981524
v -0.586101 -0.301501 0.987338
v 0.831356 -1.979294 1.000000
v 0.831356 0.018436 -1.000000
v 0.831356 -1.878090 -1.000000
v -0.591616 -0.473414 -1.000000
v 0.831356 -0.012781 1.000000
v 0.831356 -0.327807 1.000000
v 0.831356 -0.225629 -1.000000
v -1.100000 -2.067920 -0.721319
v -1.100000 1.966802 -0.713403
v 1.100000 -1.913289 -0.721319
v -0.591616 -0.179445 -1.000000
v 1.100000 -0.030132 -0.721319
v -1.100000 -0.128052 -0.721020
v -0.841993 -2.051470 -0.721319
v -1.100000 -0.462978 -0.716383
v 1.100000 -0.245596 -0.721319
v 1.081733 -0.032057 1.000000
v 0.831356 -1.944676 -0.721319
v -0.849623 -2.067920 -1.000000
v -0.591616 -1.871768 1.000000
v 1.100000 0.017391 -0.479361
v -0.849623 -0.429954 -1.000000
v 1.100000 -0.260378 -0.479361
v -0.591616 1.888577 -1.000000
v -0.576915 2.006494 0.938925
v -1.100000 2.085148 -0.474647
v 1.081733 -1.979294 1.000000
v -1.100000 -0.107580 -0.476864
v -1.100000 -0.370429 -0.477511
v -0.849623 1.952941 -0.999998
v -0.849623 -0.133883 -0.712367
v 1.100000 -0.007049 -0.171169
v -0.840844 1.923429 -0.156417
v -0.849623 1.949048 -0.719416
v 1.100000 -0.281325 -0.171169
v 1.350377 -0.003980 -1.000000
v 1.350377 -1.979294 1.000000
v -1.096488 2.075218 -0.185149
v 1.350377 -0.321977 1.000000
v -1.095942 -0.036346 -0.186129
v -1.099938 -0.372953 -0.148845
v -0.826675 1.992203 0.902211
v 1.081733 0.035908 -1.000000
v 1.100000 -0.004171 0.023005
v -0.841523 1.944958 0.056534
v -0.844483 -0.057025 0.978482
v 1.100000 -0.290530 0.023005
v 1.350377 -0.017461 1.000000
v 1.350377 -1.878090 -0.721319
v -1.091734 2.013685 0.008768
v 1.350377 -1.878090 -1.000000
v -1.091232 -0.077766 -0.009477
v -1.097382 -0.298435 0.026832
v -0.849623 -1.854220 1.000000
v 1.350377 -0.024140 0.633238
v 1.100000 -0.027222 0.391188
v -0.823833 1.990999 0.321196
v -0.849623 -1.815145 0.633238
v 1.100000 -0.315204 0.391188
v -0.588300 -0.038514 0.995419
v 1.350377 -0.201738 -1.000000
v -1.088238 1.995298 0.346182
v -0.591616 -2.067920 -1.000000
v -1.083070 -0.057654 0.332283
v -1.091034 -0.272283 0.354338
v -1.100000 -1.846462 0.633238
v -0.849623 -0.142372 -1.000000
v 1.100000 -0.028463 0.633238
v -0.824088 2.007363 0.570099
v -0.841993 -1.961268 0.633238
v 1.100000 -0.320066 0.633238
v -0.843945 -0.295557 0.978621
v 0.831356 -1.997568 0.633238
v -1.068442 2.005471 0.501482
v 1.100000 -1.999962 0.633238
v -1.068442 0.007586 0.515202
v -1.081131 -0.219168 0.574666
v 1.081733 -0.337608 1.000000
v -0.849623 -0.452781 -0.714559
v 1.081733 -0.192574 -1.000000
v 1.350377 -0.300544 0.633238
v 1.081733 -1.878090 -1.000000
v 1.081733 -1.999075 0.633238
v -0.849623 -2.067920 -0.721319
v -0.849623 2.004464 -0.459410
v 1.350377 -0.030504 -0.721319
v -0.849623 -0.086985 -0.467034
v -0.591616 1.982002 -0.716586
v -0.591616 -2.002804 -0.721319
v -0.849623 -0.403182 -0.477238
v 1.350377 -0.204795 -0.721319
v 1.081733 -1.939394 -0.721319
v 1.350377 0.009023 -0.479361
v -0.591616 1.927002 -0.474982
v 1.350377 -0.283982 -0.479361
v -0.846657 2.040893 -0.173439
v -0.845557 -0.042036 -0.183971
v -0.848914 -0.349796 -0.162832
v 1.350377 -0.002576 -0.171169
v -0.590635 1.948094 -0.174518
v 1.350377 -0.265487 -0.171169
v -0.842900 1.895065 0.034886
v -0.849071 -0.112789 0.063014
v -0.846265 -0.260227 0.024543
v 1.350377 -0.010697 0.023005
v -0.591375 1.975968 0.039350
v 1.350377 -0.296705 0.023005
v -0.830094 1.895984 0.344695
v -0.841538 -0.093126 0.396862
v -0.835295 -0.316871 0.330891
v 1.350377 -0.018824 0.391188
v -0.581998 1.959755 0.364425
v 1.350377 -0.299888 0.391188
v -0.846002 2.003564 0.627669
v -0.836526 0.022696 0.584595
v -0.841749 -0.286652 0.606536
v 1.350377 -1.979294 0.633238
v 1.081733 -0.033122 1.008143
v -0.582190 -0.023184 0.972716
v 1.081733 -0.349066 1.008143
v -0.589571 -0.272545 1.001168
v 0.831356 -0.076400 1.008143
v -0.831421 -0.055995 0.974062
v 0.831356 -0.347056 1.008143
v -0.833710 -0.258975 0.978814
v -0.841993 -0.081834 -1.000000
v -0.841993 -0.388411 -1.000000
v 0.831356 -0.006570 -1.000000
v -0.591616 -0.418312 -1.000000
v 0.831356 -0.273228 -1.000000
v -0.591616 -0.067830 -1.000000
v 1.081733 0.006998 -1.000000
v 1.081733 -0.221865 -1.000000
v 0.831356 -0.021283 -0.993130
v -0.841993 -0.183581 -0.993130
v -0.841993 -0.448038 -0.993130
v 0.831356 -0.318571 -0.993130
v 1.081733 -0.322666 -0.993130
v -0.591616 -0.499841 -0.993130
v -0.591616 -0.242744 -0.993130
v 1.081733 -0.046478 -0.993130
v 1.081733 -0.059706 -0.984987
v 0.831356 -0.013727 -0.984987
v -0.841993 -0.211612 -0.984987
v -0.591616 -0.142415 -0.984987
v 1.081733 -0.290619 -0.984987
v 0.831356 -0.283436 -0.984987
v -0.841993 -0.439785 -0.984987
v -0.591616 -0.429648 -0.984987
v -1.100000 2.235293 -0.717385
v -1.100000 2.189507 -1.000000
v -0.827544 2.248721 0.944758
v -1.078309 2.208784 0.902897
v -0.841993 2.196521 -1.000000
v -0.834076 2.271964 0.600865
v -0.591616 2.221277 -0.466529
v -0.591556 2.204953 -0.149790
v -1.100000 2.294361 -0.476146
v -0.841993 2.213040 -0.719574
v -0.591616 2.175990 -0.716673
v -0.841993 2.209318 -0.469249
v -1.097468 2.320707 -0.163822
v -0.838003 2.197228 -0.181627
v -0.580568 2.253291 0.956646
v -0.845396 2.261724 0.986244
v -1.097180 2.252142 0.011883
v -0.586495 2.245039 0.629845
v -1.082783 2.262660 0.331510
v -0.840169 2.206515 0.041895
v -0.591616 2.230997 -1.000000
v -0.841626 2.211828 0.396097
v -1.076702 2.224251 0.549482
v -0.844605 2.238120 0.024372
v -0.847813 2.209852 -0.170496
v -0.590872 2.219798 0.036475
v -0.836220 2.176342 0.351693
v -0.583641 2.237286 0.358967
v -0.832872 2.256002 0.574761
v -0.285086 -0.053689 0.698712
v 0.485344 -0.066688 0.827232
v -0.239583 -0.052230 0.635470
v 0.603760 -0.048564 0.207039
v -0.086170 -0.057946 0.196846
v 0.457883 -0.048969 0.273865
v 0.127835 -0.042821 0.200412
v -0.055073 -0.058661 0.116094
v -0.313040 -0.121305 -0.474734
v -0.053837 -0.073520 -0.159774
v -0.183512 -0.107948 -0.510784
v -0.410123 -0.143019 -0.662859
v -0.192887 -0.076438 0.088894
v -0.090414 -0.056883 0.225609
v 1.350377 -0.703060 0.908622
v 1.350377 -1.883821 0.922671
v 1.350377 -0.756802 0.870635
v 1.350377 -0.645329 -0.877093
v 1.350377 -1.049906 -0.877303
v 1.350377 -0.620578 -0.919670
v 1.350377 -0.405173 -0.947673
v 1.350377 -0.267436 -0.876896
v 1.350377 -0.299121 -0.810520
v -1.090556 -1.032001 0.603923
v -1.088130 -0.419397 0.958924
v -1.088913 -0.869866 0.705939
v -1.089401 -0.925261 0.702735
v -1.089786 -0.957321 0.719723
v -1.088808 -0.755447 0.814055
v -1.084991 -0.425155 0.731655
v -1.085127 -0.515386 0.689461
v -1.100000 -1.528739 -0.765148
v -1.100000 -1.997549 -0.828591
v -1.100000 -1.500669 -0.754447
v -1.100000 -1.481556 -0.795031
v -0.847067 1.757986 -0.228435
v -0.847321 0.433351 -0.304984
v -0.847433 1.807319 -0.260739
vn 1.0000 -0.0000 -0.0000
vn 1.0000 0.0008 -0.0000
vn 0.1932 -0.0041 -0.9811
vn 0.0044 0.9986 -0.0530
vn 0.0005 0.0004 1.0000
vn 0.0838 -0.2600 -0.9620
vn -1.0000 -0.0000 -0.0000
vn -0.0000 -0.0000 1.0000
vn 1.0000 0.0043 -0.0027
vn -0.0000 -0.0000 -1.0000
vn 0.4408 0.8970 -0.0332
vn -0.0629 -0.9860 0.1542
vn -0.0006 -0.0001 1.0000
vn 0.0477 -0.0202 -0.9987
vn -1.0000 0.0055 0.0071
vn -0.9999 -0.0003 0.0124
vn -0.9999 0.0081 -0.0123
vn -0.9999 -0.0004 0.0126
vn 0.1127 -0.9877 -0.1086
vn -0.9998 0.0022 0.0173
vn -0.0318 0.9991 -0.0295
vn -0.0114 -0.1938 0.9810
vn -0.0574 0.9821 0.1794
vn -1.0000 -0.0018 0.0017
vn 1.0000 -0.0070 -0.0059
vn 0.0609 0.9858 -0.1565
vn -0.0494 -0.0161 0.9986
vn -0.0254 0.9996 0.0135
vn -0.9995 0.0107 -0.0288
vn 0.0277 0.9996 0.0061
vn -1.0000 -0.0017 -0.0026
vn -0.0164 0.0109 0.9998
vn 0.9996 -0.0207 -0.0187
vn 0.9976 0.0104 -0.0684
vn 0.1998 -0.9775 0.0676
vn 0.0506 0.0650 -0.9966
vn 0.9999 0.0015 -0.0172
vn 0.9992 -0.0350 -0.0192
vn -0.9991 -0.0320 0.0270
vn 0.0368 -0.9990 0.0269
vn -0.3871 -0.9180 -0.0864
vn -0.9995 0.0050 0.0314
vn 0.9975 -0.0549 -0.0446
vn 0.1244 -0.9855 0.1151
vn 0.3102 0.9459 -0.0949
vn -0.1075 0.0330 0.9937
vn 0.9983 -0.0571 0.0116
vn 0.9999 -0.0101 0.0059
vn -1.0000 0.0013 -0.0020
vn -0.1123 -0.9909 -0.0740
vn 0.0036 0.0036 -1.0000
vn 0.9997 0.0018 -0.0256
vn 0.0859 0.9963 -0.0008
vn -0.0037 0.9991 0.0423
vn 0.0130 -0.0096 -0.9999
vn 0.0694 -0.9975 -0.0114
vn -0.0032 -0.9987 0.0507
vn 0.0879 -0.9942 -0.0613
vn -0.3598 0.9329 0.0180
vn 0.0041 0.9999 0.0135
vn 0.2303 -0.0159 -0.9730
vn 0.0182 -0.9991 -0.0378
vn 0.1178 -0.9864 0.1146
vn 0.0053 0.0001 -1.0000
vn 0.0006 -0.0001 1.0000
vn 0.0078 0.9983 0.0584
vn -0.0030 -0.9987 0.0518
vn 0.0192 -0.9944 -0.1035
vn -0.9994 -0.0323 0.0116
vn 0.2617 0.9315 -0.2526
vn 0.0172 0.9841 -0.1770
vn -0.0155 -0.9999 -0.0040
vn 0.0277 -0.0010 -0.9996
vn -0.3952 -0.0077 0.9186
vn 0.1883 0.9274 -0.3231
vn -0.1625 -0.8832 0.4400
vn 0.2205 0.9617 -0.1631
vn 0.0337 -0.9811 -0.1905
vn -0.0629 0.0275 0.9976
vn 0.9990 0.0437 0.0024
vn -0.0543 0.9975 0.0448
vn 0.0150 0.9988 0.0476
vn 0.0242 -0.9904 0.1363
vn 0.1227 -0.0096 -0.9924
vn -0.1961 0.0026 0.9806
vn -0.0411 -0.9659 -0.2556
vn -0.9999 -0.0113 0.0098
vn -0.1238 0.9049 -0.4072
vn -0.0957 0.9849 -0.1441
vn 0.0443 0.9573 -0.2858
vn 0.0169 0.9967 -0.0789
vn -0.0907 0.9954 0.0320
vn 0.0279 0.0028 -0.9996
vn -0.0503 -0.0023 0.9987
vn 0.0103 -0.9746 -0.2236
vn -0.0187 0.0101 0.9998
vn 0.0054 0.9999 0.0091
vn 0.2388 0.9658 -0.1009
vn -0.0980 0.9939 0.0498
vn -0.0933 0.9955 -0.0173
vn -0.0905 -0.9935 0.0689
vn 0.9999 -0.0124 -0.0023
vn -1.0000 0.0045 0.0046
vn 0.1128 -0.9933 -0.0272
vn -0.0183 -0.9994 -0.0306
vn -0.0756 0.9948 -0.0683
vn 0.0108 0.9963 -0.0853
vn -0.0885 -0.9961 0.0057
vn -0.1302 -0.9874 0.0899
vn -0.9996 0.0280 0.0044
vn 0.0202 -0.9994 0.0296
vn -0.9999 0.0139 0.0019
vn -0.0766 0.9818 -0.1737
vn 0.1848 -0.9812 -0.0558
vn -0.0289 -0.9935 0.1099
vn -0.0863 0.9938 0.0698
vn -0.2033 -0.9730 0.1095
vn 0.0524 0.9922 -0.1128
vn 0.0388 0.9991 -0.0186
vn -0.3732 -0.9274 0.0261
vn -0.1949 -0.9805 0.0268
vn -0.0189 -0.9985 0.0519
vn 0.0428 -0.9980 -0.0472
vn -0.0508 -0.9953 0.0827
vn 0.2389 0.9656 0.1027
vn -0.0047 -0.9977 -0.0681
vn -0.1468 0.0216 0.9889
vn 0.9996 -0.0006 -0.0272
vn -0.9994 -0.0124 0.0321
vn -0.0737 0.0118 0.9972
vn -0.0004 0.0005 1.0000
vn 0.0172 -0.0075 -0.9998
vn 0.0271 0.0586 -0.9979
vn -0.9977 -0.0629 0.0266
vn -0.9999 -0.0137 0.0088
vn 0.9996 0.0263 -0.0107
vn 0.1801 0.1814 -0.9668
vn 0.9998 0.0199 -0.0044
vn -0.9989 -0.0377 0.0293
vn 0.9999 0.0026 -0.0101
vn -0.0837 0.9961 -0.0267
vn 0.0116 0.9994 0.0314
vn 0.9999 -0.0111 0.0037
vn 0.0024 0.9999 0.0147
vn 0.9999 -0.0081 0.0140
vn 0.9999 -0.0096 0.0141
vt 0.236709 0.339495
vt 0.287181 0.329900
vt 0.259459 0.150670
vt 0.228772 0.155015
vt 0.267077 0.073838
vt 0.266508 0.095535
vt 0.250915 0.084355
vt 0.263925 0.071758
vt 0.479756 0.671218
vt 0.498052 0.671218
vt 0.498052 0.701008
vt 0.479756 0.701008
vt 0.286670 0.016327
vt 0.283422 0.021482
vt 0.273158 0.050082
vt 0.273785 0.050222
vt 0.345907 0.701008
vt 0.345907 0.746147
vt 0.375964 0.746147
vt 0.375964 0.701008
vt 0.622111 0.282720
vt 0.479756 0.963426
vt 0.479756 0.992293
vt 0.498052 0.992293
vt 0.498052 0.963426
vt 0.479756 0.746147
vt 0.498052 0.746147
vt 0.479756 0.469943
vt 0.479756 0.500000
vt 0.498052 0.500000
vt 0.498052 0.469943
vt 0.479756 0.219555
vt 0.479756 0.253853
vt 0.498052 0.253853
vt 0.498052 0.219555
vt 0.479756 0.282720
vt 0.498052 0.282720
vt 0.375964 0.469943
vt 0.129817 0.701008
vt 0.129817 0.746147
vt 0.158684 0.746147
vt 0.158684 0.701008
vt 0.839390 0.701008
vt 0.839390 0.671218
vt 0.331115 0.329322
vt 0.288310 0.140953
vt 0.479756 0.534298
vt 0.498052 0.534298
vt 0.498052 0.564077
vt 0.479756 0.564077
vt 0.375964 0.253853
vt 0.375964 0.282720
vt 0.375964 0.219555
vt 0.412571 0.223819
vt 0.413715 0.228788
vt 0.410737 0.225118
vt 0.380481 0.232772
vt 0.375964 0.500000
vt 0.375964 0.963426
vt 0.375964 0.992293
vt 0.466715 0.992293
vt 0.304832 0.357289
vt 0.299857 0.331415
vt 0.248943 0.339759
vt 0.251861 0.365185
vt 0.375964 0.776204
vt 0.479756 0.776204
vt 0.275353 0.289914
vt 0.275020 0.162559
vt 0.280387 0.165469
vt 0.285848 0.136492
vt 0.239703 0.152011
vt 0.479756 0.007707
vt 0.498052 0.007707
vt 0.498052 0.052845
vt 0.479756 0.052845
vt 0.410379 0.013804
vt 0.434478 0.035422
vt 0.418744 0.043721
vt 0.398924 0.025459
vt 0.130850 0.774818
vt 0.127734 0.806173
vt 0.101627 0.978476
vt 0.105044 0.992214
vt 0.274955 0.289739
vt 0.375964 0.534298
vt 0.345907 0.500000
vt 0.345907 0.534298
vt 0.289338 0.015395
vt 0.274916 0.049616
vt 0.273280 0.052263
vt 0.283372 0.020526
vt 0.129817 0.500000
vt 0.129817 0.534298
vt 0.158684 0.534298
vt 0.158684 0.500000
vt 0.147954 0.808279
vt 0.118338 0.982623
vt 0.479756 0.189777
vt 0.498052 0.189777
vt 0.274146 0.050183
vt 0.274096 0.051001
vt 0.274205 0.050288
vt 0.237499 0.126123
vt 0.235394 0.119054
vt 0.479756 0.151846
vt 0.498052 0.151846
vt 0.498052 0.776204
vt 0.198946 0.106517
vt 0.167167 0.141865
vt 0.213163 0.152662
vt 0.222425 0.128811
vt 0.479756 0.625904
vt 0.498052 0.625904
vt 0.868257 0.671218
vt 0.868257 0.701008
vt 0.498052 0.082635
vt 0.479756 0.082635
vt 0.479756 0.127949
vt 0.498052 0.127949
vt 0.273045 0.052929
vt 0.271423 0.056325
vt 0.272132 0.056752
vt 0.272906 0.054014
vt 0.452185 0.730225
vt 0.381916 0.736630
vt 0.227946 0.123838
vt 0.479756 0.602007
vt 0.498052 0.602007
vt 0.839390 0.602007
vt 0.868257 0.602007
vt 0.269848 0.057920
vt 0.269712 0.058029
vt 0.269970 0.058693
vt 0.215905 0.353139
vt 0.219968 0.375083
vt 0.384491 0.227932
vt 0.384947 0.247143
vt 0.370781 0.247143
vt 0.370923 0.227932
vt 0.282489 0.075664
vt 0.273636 0.069097
vt 0.273876 0.061788
vt 0.280521 0.057624
vt 0.269771 0.057902
vt 0.270380 0.057087
vt 0.268086 0.059808
vt 0.269650 0.058012
vt 0.622111 0.253853
vt 0.290414 0.007786
vt 0.399669 0.028466
vt 0.370781 0.007786
vt 0.255071 0.143599
vt 0.231779 0.143936
vt 0.283824 0.024353
vt 0.375964 0.007707
vt 0.375964 0.052845
vt 0.427912 0.052845
vt 0.432433 0.038531
vt 0.445215 0.026351
vt 0.466715 0.007707
vt 0.467190 0.506440
vt 0.453864 0.509887
vt 0.427283 0.515101
vt 0.452352 0.515127
vt 0.148113 0.378060
vt 0.270820 0.060714
vt 0.270332 0.060549
vt 0.839390 0.534298
vt 0.868257 0.534298
vt 0.868257 0.564077
vt 0.839390 0.564077
vt 0.839390 0.625904
vt 0.272788 0.055682
vt 0.272013 0.055863
vt 0.370622 0.314997
vt 0.328646 0.130275
vt 0.273372 0.050894
vt 0.272714 0.054337
vt 0.214790 0.150038
vt 0.273508 0.050969
vt 0.411441 0.227773
vt 0.392918 0.225306
vt 0.226129 0.336996
vt 0.344091 0.361125
vt 0.342417 0.327784
vt 0.303901 0.378060
vt 0.271921 0.054513
vt 0.328176 0.130195
vt 0.093880 0.774626
vt 0.086648 0.972103
vt 0.068958 0.080607
vt 0.075873 0.032890
vt 0.090098 0.007786
vt 0.087829 0.078949
vt 0.096577 0.038118
vt 0.087842 0.029273
vt 0.147954 0.061641
vt 0.144990 0.062308
vt 0.137835 0.032661
vt 0.139458 0.030571
vt 0.145641 0.068277
vt 0.138467 0.036707
vt 0.095484 0.058505
vt 0.110539 0.051422
vt 0.114603 0.054539
vt 0.134731 0.059116
vt 0.370781 0.222007
vt 0.006824 0.073144
vt 0.012904 0.025037
vt 0.269596 0.058284
vt 0.272602 0.055289
vt 0.258861 0.120790
vt 0.235021 0.128186
vt 0.264432 0.062379
vt 0.226472 0.121253
vt 0.216682 0.137755
vt 0.254442 0.059601
vt 0.218900 0.093637
vt 0.193666 0.110833
vt 0.271544 0.062521
vt 0.271629 0.056706
vt 0.271734 0.059537
vt 0.270445 0.052326
vt 0.270453 0.059048
vt 0.230103 0.101578
vt 0.868257 0.625904
vt 0.622111 0.127949
vt 0.622111 0.082635
vt 0.188673 0.096094
vt 0.264592 0.045008
vt 0.273173 0.060413
vt 0.273290 0.057618
vt 0.272871 0.066138
vt 0.273035 0.063529
vt 0.184675 0.124495
vt 0.129728 0.054322
vt 0.120626 0.049171
vt 0.124020 0.052858
vt 0.113630 0.049908
vt 0.113880 0.030512
vt 0.093076 0.026822
vt 0.455644 0.734900
vt 0.460757 0.040353
vt 0.438055 0.039834
vt 0.434518 0.040450
vt 0.112093 0.044318
vt 0.111970 0.034040
vt 0.111154 0.050977
vt 0.096955 0.055539
vt 0.475768 0.515151
vt 0.473849 0.523320
vt 0.466507 0.034936
s 0
usemtl Material.002
f 38/1/1 10/2/1 4/3/1 34/4/1
f 131/5/2 125/6/2 182/7/2 200/8/2
f 138/9/1 136/10/1 80/11/1 106/12/1
f 17/13/3 9/14/3 2/15/3 16/16/3
f 98/17/4 26/18/4 5/19/4 100/20/4
f 14/21/5 49/21/5 195/21/5 179/21/5
f 24/22/6 22/23/6 9/24/6 17/25/6
f 96/12/7 21/26/7 12/27/7 93/11/7
f 32/28/8 20/29/8 11/30/8 27/31/8
f 40/32/1 19/33/1 10/34/1 38/35/1
f 19/33/8 23/36/8 18/37/8 10/34/8
f 85/25/9 25/22/9 164/22/9 165/25/9
f 28/38/10 32/28/10 105/28/10 107/38/10
f 91/39/11 1/40/11 15/41/11 95/42/11
f 94/43/12 82/44/12 137/44/12 8/43/12
f 10/2/13 18/45/13 14/46/13 4/3/13
f 116/47/1 111/48/1 118/49/1 120/50/1
f 3/51/8 13/52/8 23/36/8 19/33/8
f 33/53/1 237/54/1 238/55/1 235/56/1 236/57/1 3/51/1 19/33/1 40/32/1
f 28/38/8 7/58/8 20/29/8 32/28/8
f 3/51/1 236/57/1 237/54/1 33/53/1
f 15/59/14 1/60/14 228/61/14 22/23/14 24/22/14
f 123/62/15 122/63/15 112/64/15 115/65/15
f 5/19/10 26/66/10 31/67/10 21/26/10
f 112/64/16 240/68/16 241/69/16 239/70/16 121/71/16 110/72/16
f 97/73/17 71/74/17 140/75/17 141/76/17
f 21/77/10 31/78/10 30/79/10 12/80/10
f 151/81/10 156/82/10 157/83/10 153/84/10
f 122/63/18 121/71/18 239/70/18 240/85/18 112/64/18
f 41/47/8 35/86/8 74/86/8 116/47/8
f 107/87/19 76/58/19 74/86/19 117/88/19
f 71/89/20 67/90/20 139/91/20 140/92/20
f 7/58/7 35/86/7 41/47/7 20/29/7
f 155/28/10 158/28/10 154/36/10 152/36/10
f 3/93/21 33/94/21 39/95/21 13/96/21
f 154/97/8 158/98/8 157/83/8 156/82/8
f 54/99/1 40/32/1 38/35/1 53/100/1
f 20/29/7 41/47/7 37/48/7 11/30/7
f 67/90/22 50/101/22 189/102/22 190/103/22
f 28/87/23 43/88/23 35/86/23 7/58/23
f 119/104/24 125/6/24 182/7/24 181/105/24
f 66/106/25 54/99/25 53/100/25 65/107/25
f 64/26/8 73/27/8 42/108/8 103/67/8
f 49/109/26 55/110/26 59/111/26 113/112/26
f 132/113/1 130/114/1 136/10/1 138/9/1
f 62/19/8 64/26/8 103/67/8 52/66/8
f 25/22/27 85/25/27 71/24/27 97/23/27
f 81/10/28 93/11/28 80/11/28 136/10/28
f 41/47/7 48/50/7 46/49/7 37/48/7
f 133/115/29 139/116/29 203/116/29 201/115/29
f 31/67/30 103/67/30 163/67/30 162/67/30
f 141/76/31 140/75/31 134/117/31 135/118/31
f 45/59/32 25/22/32 97/23/32 79/60/32
f 78/119/33 66/106/33 65/107/33 77/120/33
f 86/29/1 61/30/1 111/48/1 116/47/1
f 99/121/34 87/122/34 193/123/34 197/124/34
f 142/20/1 106/12/1 220/125/1 219/126/1 62/19/1
f 113/112/7 119/104/7 181/105/7 185/127/7
f 144/37/35 148/37/35 169/37/35 170/37/35
f 48/50/7 60/128/7 57/129/7 46/49/7
f 125/130/36 121/131/36 199/131/36 182/130/36
f 47/33/10 92/34/10 36/37/10 29/36/10
f 126/128/1 124/129/1 130/114/1 132/113/1
f 89/132/37 77/133/37 75/134/37 87/122/37
f 90/118/38 78/119/38 77/120/38 89/117/38
f 115/65/7 112/64/7 56/135/7 104/136/7
f 135/118/39 134/117/39 128/120/39 129/119/39
f 109/53/7 104/32/7 47/33/7 44/51/7
f 108/17/40 142/20/40 62/19/40 52/18/40
f 39/95/8 33/94/8 109/94/8 114/95/8
f 60/137/7 72/138/7 69/139/7 57/140/7
f 58/141/41 70/142/41 75/143/41 63/144/41
f 104/32/7 56/35/7 92/34/7 47/33/7
f 134/145/42 133/146/42 127/147/42 128/148/42
f 44/51/10 47/33/10 29/36/10 88/52/10
f 102/76/43 90/118/43 89/117/43 101/75/43
f 44/93/44 88/96/44 114/95/44 109/94/44
f 119/104/45 110/72/45 121/71/45 125/6/45
f 92/34/10 55/149/10 49/21/10 36/37/10
f 85/150/46 50/101/46 67/90/46 71/89/46
f 12/80/10 30/79/10 42/151/10 73/152/10
f 72/113/7 84/9/7 81/10/7 69/114/7
f 34/4/1 4/3/1 176/153/1 175/154/1
f 105/28/10 68/31/10 61/30/10 86/29/10
f 120/50/1 118/49/1 124/129/1 126/128/1
f 9/14/1 101/155/1 99/121/1 2/15/1
f 22/73/47 102/76/47 101/75/47 9/74/47
f 1/156/48 91/157/48 227/158/48 231/159/48 232/160/48 228/161/48
f 76/58/1 86/29/1 224/162/1 223/163/1 222/164/1 221/165/1 116/47/1 74/86/1
f 129/119/49 128/120/49 122/107/49 123/106/49
f 83/39/50 6/42/50 45/41/50 79/40/50
f 56/135/7 59/111/7 55/110/7 92/166/7
f 33/53/51 40/32/51 104/32/51 109/53/51
f 84/9/7 96/12/7 93/11/7 81/10/7
f 137/167/52 131/5/52 200/8/52 202/168/52
f 106/12/1 80/11/1 73/27/1 64/26/1
f 113/169/53 59/170/53 110/171/53 119/172/53
f 23/36/8 13/52/8 88/52/8 29/36/8
f 31/67/8 26/66/8 52/66/8 103/67/8
f 69/114/54 81/10/54 136/10/54 130/114/54
f 15/59/55 24/22/55 25/22/55 45/59/55
f 96/12/56 84/9/56 138/9/56 106/12/56
f 82/44/57 70/173/57 131/173/57 137/44/57
f 16/16/58 94/174/58 8/175/58 50/101/58
f 35/86/8 43/88/8 117/88/8 74/86/8
f 95/42/59 15/41/59 45/41/59 6/42/59
f 57/129/60 69/114/60 130/114/60 124/129/60
f 17/13/61 16/16/61 50/101/61 85/150/61
f 84/9/62 72/113/62 132/113/62 138/9/62
f 70/142/63 58/141/63 125/6/63 131/5/63
f 38/1/64 34/4/64 59/111/64 56/135/64
f 14/46/65 18/45/65 36/176/65 49/177/65
f 46/49/66 57/129/66 124/129/66 118/49/66
f 26/18/67 98/17/67 108/17/67 52/18/67
f 72/113/68 60/128/68 126/128/68 132/113/68
f 94/174/69 16/16/69 177/178/69 180/179/69
f 87/122/70 99/121/70 139/91/70 133/146/70
f 37/48/71 46/49/71 118/49/71 111/48/71
f 60/128/72 48/50/72 120/50/72 126/128/72
f 125/130/73 58/130/73 188/130/73 182/130/73
f 99/121/74 101/155/74 140/92/74 139/91/74
f 34/4/75 51/180/75 110/72/75 59/111/75
f 101/75/76 89/117/76 134/117/76 140/75/76
f 90/118/77 102/76/77 141/76/77 135/118/77
f 48/50/78 41/47/78 116/47/78 120/50/78
f 102/76/79 227/158/79 91/157/79 83/157/79 141/76/79
f 2/15/80 99/121/80 197/124/80 178/181/80
f 11/30/81 37/48/81 111/48/81 61/30/81
f 30/79/1 31/78/1 162/182/1 159/183/1
f 78/119/82 90/118/82 135/118/82 129/119/82
f 53/184/83 38/1/83 56/135/83 112/64/83
f 89/132/84 87/122/84 133/146/84 134/145/84
f 75/134/85 77/133/85 128/148/85 127/147/85
f 77/185/86 65/186/86 122/63/86 128/187/86
f 100/20/10 96/12/10 106/12/10 142/20/10
f 139/91/87 67/90/87 190/103/87 203/188/87
f 66/106/88 78/119/88 129/119/88 123/106/88
f 91/39/8 95/42/8 6/42/8 83/39/8
f 13/96/89 39/95/89 114/95/89 88/96/89
f 40/32/90 54/99/90 115/99/90 104/32/90
f 54/99/91 66/106/91 123/106/91 115/99/91
f 93/11/92 12/27/92 73/27/92 80/11/92
f 65/186/93 63/189/93 121/71/93 122/63/93
f 51/180/94 53/184/94 112/64/94 110/72/94
f 27/31/8 11/30/8 61/30/8 68/31/8
f 98/17/8 100/20/8 142/20/8 108/17/8
f 43/88/95 28/87/95 107/87/95 117/88/95
f 152/190/10 151/81/10 153/84/10 155/191/10
f 150/192/96 149/193/96 147/194/96 148/195/96
f 147/31/97 143/31/97 167/31/97 168/31/97
f 103/67/7 42/108/7 166/108/7 163/67/7
f 17/25/98 85/25/98 165/25/98 160/25/98
f 158/98/99 155/191/99 149/193/99 145/196/99
f 157/83/7 158/98/7 145/196/7 143/197/7
f 156/37/100 151/37/100 148/37/100 144/37/100
f 152/36/101 154/36/101 146/36/101 150/36/101
f 154/36/102 156/37/102 144/37/102 146/36/102
f 151/81/103 152/190/103 150/192/103 148/195/103
f 155/191/1 153/84/1 147/194/1 149/193/1
f 153/84/104 157/83/104 143/197/104 147/194/104
f 162/67/10 161/22/10 160/25/10 159/108/10
f 163/67/8 166/108/8 165/25/8 164/22/8
f 159/108/8 160/25/8 165/25/8 166/108/8
f 161/22/10 162/67/10 163/67/10 164/22/10
f 174/198/10 170/199/10 167/200/10 171/201/10
f 172/28/8 173/36/8 174/36/8 171/28/8
f 169/202/10 168/203/10 167/200/10 170/199/10
f 145/28/105 149/28/105 172/28/105 171/28/105
f 148/195/106 204/204/106 217/205/106 216/206/106 215/207/106 169/202/106
f 150/36/107 146/36/107 174/36/107 173/36/107
f 42/151/108 30/79/108 159/183/108 166/208/108
f 25/22/109 24/22/109 161/22/109 164/22/109
f 24/22/110 17/25/110 160/25/110 161/22/110
f 149/193/111 150/192/111 173/209/111 172/210/111
f 143/197/1 145/196/1 171/201/1 167/200/1
f 146/36/112 144/37/112 170/37/112 174/36/112
f 202/168/113 201/211/113 203/188/113 192/212/113
f 180/179/114 177/178/114 178/181/114 197/124/114
f 179/213/115 184/214/115 175/154/115 176/153/115
f 200/8/116 198/215/116 201/211/116 202/168/116
f 184/214/117 186/216/117 183/217/117 175/154/117
f 182/7/118 199/218/118 198/215/118 200/8/118
f 192/212/119 203/188/119 190/103/119 189/102/119
f 186/216/120 188/219/120 187/220/120 183/217/120
f 194/221/121 196/222/121 193/123/121 191/223/121
f 196/222/122 180/179/122 197/124/122 193/123/122
f 188/219/123 186/216/123 181/105/123 182/7/123
f 186/216/124 184/214/124 185/127/124 181/105/124
f 187/224/125 191/225/125 198/215/125 199/218/125
f 184/214/126 179/213/126 195/226/126 185/127/126
f 75/227/127 70/173/127 194/173/127 191/227/127
f 87/122/128 75/134/128 191/223/128 193/123/128
f 127/228/129 133/229/129 201/229/129 198/228/129
f 51/180/1 34/4/1 175/154/1 183/217/1
f 75/134/130 127/147/130 198/215/130 191/225/130
f 49/109/7 113/112/7 185/127/7 195/226/7
f 4/3/131 14/46/131 179/213/131 176/153/131
f 58/141/132 63/230/132 187/220/132 188/219/132
f 121/71/133 63/231/133 187/224/133 199/218/133
f 82/232/134 94/174/134 180/179/134 196/233/134
f 63/144/135 75/143/135 191/225/135 187/224/135
f 50/101/136 8/175/136 192/212/136 189/102/136
f 16/16/137 2/15/137 178/181/137 177/178/137
f 8/175/138 137/167/138 202/168/138 192/212/138
f 70/234/139 82/232/139 196/233/139 194/235/139
f 63/236/140 51/180/140 183/217/140 187/220/140
f 169/202/141 215/207/141 214/237/141 213/238/141 212/239/141 211/240/141 207/241/141 168/203/141
f 168/203/142 207/241/142 205/242/142 204/204/142 148/195/142 147/194/142
f 62/19/1 219/126/1 218/243/1 220/125/1 106/12/1 64/26/1
f 102/76/143 234/244/143 229/245/143 230/246/143 227/158/143
f 210/247/144 209/248/144 208/249/144 217/205/144 204/204/144 206/250/144 205/242/144 207/241/144
f 225/251/1 221/165/1 224/162/1 86/29/1 116/47/1 226/252/1
f 228/161/145 233/253/145 234/244/145 102/76/145 22/73/145
f 229/245/146 233/253/146 228/161/146
