# Blender 3.6.7
# www.blender.org
mtllib light_switch.mtl
o light_switch
v -0.043019 0.040829 0.007428
v -0.031143 0.040829 -0.000000
v -0.043020 0.040829 0.000000
v -0.018102 0.040829 0.007428
v -0.018102 0.040829 -0.000000
v -0.031143 0.040829 0.007428
v -0.000000 0.040829 0.007422
v -0.000000 0.040829 -0.000000
v 0.018102 0.040829 -0.000000
v 0.008595 0.017024 0.007614
v 0.000000 0.017183 0.001239
v 0.000000 0.017024 0.007614
v 0.008595 0.017024 0.007614
v 0.008595 -0.017995 0.006754
v 0.008595 0.017183 0.001238
v 0.008595 -0.013843 0.015968
v 0.008595 -0.013843 0.015968
v 0.000000 0.017024 0.007614
v 0.000000 -0.013843 0.015968
v 0.008595 -0.013843 0.015968
v 0.000000 -0.013843 0.015968
v 0.000000 -0.017995 0.006754
v 0.008595 -0.017995 0.006754
v 0.008595 0.017183 0.001238
v -0.008595 0.017024 0.007614
v -0.008595 0.017183 0.001238
v -0.008595 0.017024 0.007614
v -0.008595 -0.017995 0.006754
v -0.008595 -0.013843 0.015968
v -0.008595 0.017183 0.001238
v -0.008595 -0.013843 0.015968
v -0.008595 0.017024 0.007614
v 0.008595 0.017024 0.007614
v -0.008595 -0.013843 0.015968
v -0.008595 -0.017995 0.006754
v 0.008750 -0.017983 0.003940
v 0.008750 -0.000485 0.007428
v 0.008751 -0.000485 0.003940
v 0.008750 0.017074 0.007428
v -0.000000 0.017074 0.003940
v 0.008752 0.017074 0.003940
v 0.018102 -0.000485 0.007428
v 0.008750 -0.000485 0.007428
v 0.043019 0.040829 0.007428
v 0.043019 -0.000491 0.007428
v 0.043020 0.040829 0.000000
v 0.043020 -0.000491 0.000000
v 0.018102 0.040829 0.007428
v 0.031143 0.040829 -0.000000
v 0.031086 0.003730 0.007428
v 0.028492 0.002712 0.005839
v 0.031083 0.003391 0.005839
v 0.034004 -0.003368 0.005839
v 0.035358 -0.000493 0.007428
v 0.035015 -0.000495 0.005839
v 0.043019 0.040829 0.007428
v 0.031086 0.003730 0.007428
v 0.034230 0.002559 0.007428
v 0.043019 -0.000491 0.007428
v 0.034261 -0.003615 0.007428
v 0.035358 -0.000493 0.007428
v 0.033977 0.002313 0.005839
v 0.034261 -0.003615 0.007428
v 0.026773 -0.000485 0.005839
v 0.028111 -0.003483 0.005839
v 0.031049 -0.000506 0.005839
v 0.028492 0.002712 0.005839
v 0.031083 0.003391 0.005839
v 0.034004 -0.003368 0.005839
v 0.031046 -0.004702 0.005839
v 0.033977 0.002313 0.005839
v 0.035015 -0.000495 0.005839
v 0.028111 -0.003483 0.005839
v 0.026401 -0.000482 0.007428
v 0.027854 -0.003741 0.007428
v 0.031046 -0.005066 0.007428
v 0.031046 -0.004702 0.005839
v 0.026773 -0.000485 0.005839
v 0.028270 0.002992 0.007428
v 0.034230 0.002559 0.007428
v 0.031086 0.003730 0.007428
v 0.031083 0.003391 0.005839
v 0.031143 0.040829 0.007428
v 0.043019 0.040829 0.007428
v 0.043020 0.040829 0.000000
v 0.031143 0.040829 0.007428
v 0.028270 0.002992 0.007428
v 0.026401 -0.000482 0.007428
v 0.031046 -0.005066 0.007428
v 0.018102 -0.040677 -0.000000
v -0.000000 -0.040677 0.007428
v -0.000000 -0.040677 -0.000000
v 0.031143 -0.040677 -0.000000
v 0.018102 -0.040677 0.007428
v 0.031143 -0.040677 0.007428
v 0.031143 -0.040677 -0.000000
v 0.043019 -0.040677 0.007428
v 0.043020 -0.040677 0.000000
v 0.018102 -0.040677 0.007428
v 0.027854 -0.003741 0.007428
v 0.031143 -0.040677 0.007428
v 0.008750 0.017074 0.007428
v -0.000000 0.040829 0.007422
v -0.000000 0.017074 0.007428
v 0.018102 0.040829 0.007428
v 0.043020 -0.040677 0.000000
v 0.043020 -0.000491 0.000000
v 0.043019 -0.040677 0.007428
v 0.008750 -0.017983 0.007428
v 0.008752 0.017074 0.003940
v 0.008750 0.017074 0.007428
v 0.030879 0.002447 0.007034
v 0.028283 0.002123 0.006565
v 0.028918 0.001494 0.007034
v 0.032906 0.001640 0.007034
v 0.033494 0.002313 0.006565
v 0.032312 -0.001082 0.007348
v 0.033562 -0.001239 0.007034
v 0.033612 -0.001018 0.007034
v 0.032272 -0.001242 0.007348
v 0.031011 -0.001126 0.007419
v 0.031016 -0.001284 0.007408
v 0.032110 -0.001665 0.007348
v 0.031048 -0.002180 0.007348
v 0.033061 -0.002606 0.007034
v 0.029072 -0.002751 0.007034
v 0.031099 -0.003557 0.007034
v 0.028485 -0.003424 0.006565
v 0.031132 -0.004478 0.006565
v 0.033696 -0.003234 0.006565
v 0.029952 -0.001743 0.007348
v 0.028441 -0.001372 0.007034
v 0.029758 -0.001334 0.007348
v 0.027444 -0.001417 0.006565
v 0.027230 -0.001230 0.006012
v 0.027125 -0.001447 0.005848
v 0.027536 -0.001225 0.006565
v 0.028407 -0.001209 0.007034
v 0.029707 -0.001177 0.007348
v 0.027496 -0.000139 0.006565
v 0.028693 -0.000081 0.005946
v 0.028366 -0.000092 0.007034
v 0.027159 -0.000695 0.006011
v 0.027063 -0.000699 0.005848
v 0.027063 -0.000699 0.005848
v 0.027190 -0.000155 0.006012
v 0.027057 0.000016 0.005848
v 0.027536 -0.001225 0.006565
v 0.028407 -0.001209 0.007034
v 0.028733 -0.001196 0.005946
v 0.027230 -0.001230 0.006012
v 0.028263 -0.003679 0.005848
v 0.031145 -0.004826 0.005848
v 0.027496 -0.000139 0.006565
v 0.027379 0.000013 0.006565
v 0.027159 -0.000695 0.006011
v 0.028042 0.002361 0.005848
v 0.034813 0.000329 0.005848
v 0.034492 0.000302 0.006565
v 0.034748 0.000120 0.006012
v 0.034443 0.000114 0.006565
v 0.034884 -0.000414 0.005848
v 0.034786 -0.000416 0.006012
v 0.028733 -0.001196 0.005946
v 0.029829 -0.000598 0.005930
v 0.028713 -0.000638 0.005946
v 0.027230 -0.001230 0.006012
v 0.027159 -0.000695 0.006011
v 0.028693 -0.000081 0.005946
v 0.027190 -0.000155 0.006012
v 0.034748 0.000120 0.006012
v 0.033265 -0.000472 0.005946
v 0.034786 -0.000416 0.006012
v 0.034482 -0.000972 0.006565
v 0.033285 -0.001030 0.005946
v 0.033612 -0.001018 0.007034
v 0.034787 -0.000955 0.006012
v 0.030846 0.003367 0.006565
v 0.033716 0.002567 0.005848
v 0.030833 0.003715 0.005848
v 0.033509 0.000305 0.007034
v 0.033572 0.000097 0.007034
v 0.030929 0.001070 0.007348
v 0.032202 0.000258 0.007348
v 0.032270 0.000067 0.007348
v 0.032026 0.000633 0.007348
v 0.030961 0.000207 0.007406
v 0.030968 0.000015 0.007419
v 0.029724 0.000179 0.007348
v 0.029665 -0.000028 0.007348
v 0.029868 0.000554 0.007348
v 0.028407 0.000107 0.007034
v 0.028366 -0.000092 0.007034
v 0.033572 0.000097 0.007034
v 0.032270 0.000067 0.007348
v 0.033245 0.000085 0.005946
v 0.034443 0.000114 0.006565
v 0.034748 0.000120 0.006012
v 0.032312 -0.001082 0.007348
v 0.034787 -0.000955 0.006012
v 0.029808 -0.000023 0.005930
v 0.031009 -0.001126 0.005927
v 0.030988 -0.000555 0.005927
v 0.030968 0.000015 0.005927
v 0.029850 -0.001172 0.005930
v 0.032128 0.000061 0.005930
v 0.030968 0.000015 0.007419
v 0.030968 0.000015 0.005927
v 0.029665 -0.000028 0.007348
v 0.027190 -0.000155 0.006012
v 0.033245 0.000085 0.005946
v 0.032149 -0.000513 0.005930
v 0.032128 0.000061 0.005930
v 0.033285 -0.001030 0.005946
v 0.032170 -0.001088 0.005930
v 0.029850 -0.001172 0.005930
v 0.031011 -0.001126 0.007419
v 0.031009 -0.001126 0.005927
v 0.029707 -0.001177 0.007348
v 0.029808 -0.000023 0.005930
v 0.032170 -0.001088 0.005930
v 0.034543 -0.001189 0.006565
v 0.034482 -0.000972 0.006565
v 0.034787 -0.000955 0.006012
v 0.034864 -0.001195 0.005848
v 0.034884 -0.000414 0.005848
v 0.034786 -0.000416 0.006012
v 0.033936 -0.003472 0.005848
v -0.008750 -0.017983 0.003940
v -0.008750 -0.000485 0.007428
v -0.008750 -0.017983 0.007428
v -0.008750 -0.017983 0.003940
v -0.000000 -0.017983 0.007428
v -0.000000 -0.017983 0.003940
v 0.008750 -0.017983 0.003940
v 0.008750 -0.017983 0.007428
v -0.008750 -0.017983 0.007428
v -0.018102 -0.040677 -0.000000
v -0.000000 -0.040677 -0.000000
v -0.018102 -0.040677 0.007428
v -0.008750 0.017074 0.007428
v -0.000000 0.017074 0.007428
v -0.008750 0.017074 0.007428
v -0.008752 0.017074 0.003940
v -0.000000 -0.017983 0.007428
v -0.000000 -0.040677 0.007428
v -0.018102 -0.040677 0.007428
v -0.018102 -0.000485 0.007428
v -0.043020 0.040829 0.000000
v -0.043019 -0.000491 0.007428
v -0.043019 0.040829 0.007428
v -0.031086 0.003730 0.007428
v -0.031083 0.003391 0.005839
v -0.028492 0.002712 0.005839
v -0.034261 -0.003615 0.007428
v -0.031046 -0.005066 0.007428
v -0.034004 -0.003368 0.005839
v -0.043019 0.040829 0.007428
v -0.031086 0.003730 0.007428
v -0.031143 0.040829 0.007428
v -0.034230 0.002559 0.007428
v -0.043019 -0.000491 0.007428
v -0.035358 -0.000493 0.007428
v -0.034261 -0.003615 0.007428
v -0.035358 -0.000493 0.007428
v -0.035015 -0.000495 0.005839
v -0.033977 0.002313 0.005839
v -0.026773 -0.000485 0.005839
v -0.031049 -0.000506 0.005839
v -0.028111 -0.003483 0.005839
v -0.028492 0.002712 0.005839
v -0.034004 -0.003368 0.005839
v -0.035015 -0.000495 0.005839
v -0.031046 -0.004702 0.005839
v -0.031083 0.003391 0.005839
v -0.033977 0.002313 0.005839
v -0.031046 -0.004702 0.005839
v -0.028111 -0.003483 0.005839
v -0.026401 -0.000482 0.007428
v -0.026773 -0.000485 0.005839
v -0.027854 -0.003741 0.007428
v -0.028270 0.002992 0.007428
v -0.034230 0.002559 0.007428
v -0.031086 0.003730 0.007428
v -0.031083 0.003391 0.005839
v -0.028270 0.002992 0.007428
v -0.018102 0.040829 0.007428
v -0.031046 -0.005066 0.007428
v -0.031143 -0.040677 -0.000000
v -0.031143 -0.040677 0.007428
v -0.031143 -0.040677 -0.000000
v -0.043019 -0.040677 0.007428
v -0.043020 -0.040677 0.000000
v -0.027854 -0.003741 0.007428
v -0.026401 -0.000482 0.007428
v -0.031143 -0.040677 0.007428
v -0.008750 -0.000485 0.007428
v -0.043020 -0.040677 0.000000
v -0.043020 -0.000491 0.000000
v -0.043020 -0.000491 0.000000
v -0.043019 -0.040677 0.007428
v -0.008750 0.017074 0.007428
v -0.008752 0.017074 0.003940
v -0.008751 -0.000485 0.003940
v -0.030879 0.002447 0.007034
v -0.032906 0.001640 0.007034
v -0.030929 0.001070 0.007348
v -0.033494 0.002313 0.006565
v -0.028283 0.002123 0.006565
v -0.030846 0.003367 0.006565
v -0.032312 -0.001082 0.007348
v -0.033562 -0.001239 0.007034
v -0.032272 -0.001242 0.007348
v -0.031011 -0.001126 0.007419
v -0.032110 -0.001665 0.007348
v -0.031016 -0.001284 0.007408
v -0.033061 -0.002606 0.007034
v -0.031048 -0.002180 0.007348
v -0.029952 -0.001743 0.007348
v -0.029072 -0.002751 0.007034
v -0.031099 -0.003557 0.007034
v -0.033696 -0.003234 0.006565
v -0.031132 -0.004478 0.006565
v -0.028485 -0.003424 0.006565
v -0.028441 -0.001372 0.007034
v -0.029758 -0.001334 0.007348
v -0.027444 -0.001417 0.006565
v -0.027230 -0.001230 0.006012
v -0.027536 -0.001225 0.006565
v -0.028407 -0.001209 0.007034
v -0.029707 -0.001177 0.007348
v -0.027496 -0.000139 0.006565
v -0.028693 -0.000081 0.005946
v -0.027190 -0.000155 0.006012
v -0.029850 -0.001172 0.005930
v -0.028733 -0.001196 0.005946
v -0.029829 -0.000598 0.005930
v -0.027159 -0.000695 0.006011
v -0.027063 -0.000699 0.005848
v -0.027125 -0.001447 0.005848
v -0.028263 -0.003679 0.005848
v -0.027063 -0.000699 0.005848
v -0.027190 -0.000155 0.006012
v -0.027159 -0.000695 0.006011
v -0.027536 -0.001225 0.006565
v -0.028733 -0.001196 0.005946
v -0.028407 -0.001209 0.007034
v -0.027230 -0.001230 0.006012
v -0.031145 -0.004826 0.005848
v -0.027379 0.000013 0.006565
v -0.027496 -0.000139 0.006565
v -0.027057 0.000016 0.005848
v -0.028042 0.002361 0.005848
v -0.034884 -0.000414 0.005848
v -0.034864 -0.001195 0.005848
v -0.034787 -0.000955 0.006012
v -0.034786 -0.000416 0.006012
v -0.034748 0.000120 0.006012
v -0.034884 -0.000414 0.005848
v -0.034492 0.000302 0.006565
v -0.034813 0.000329 0.005848
v -0.033716 0.002567 0.005848
v -0.027230 -0.001230 0.006012
v -0.028713 -0.000638 0.005946
v -0.028693 -0.000081 0.005946
v -0.029808 -0.000023 0.005930
v -0.027159 -0.000695 0.006011
v -0.027190 -0.000155 0.006012
v -0.034482 -0.000972 0.006565
v -0.033285 -0.001030 0.005946
v -0.034787 -0.000955 0.006012
v -0.034786 -0.000416 0.006012
v -0.033265 -0.000472 0.005946
v -0.034748 0.000120 0.006012
v -0.033509 0.000305 0.007034
v -0.030833 0.003715 0.005848
v -0.034443 0.000114 0.006565
v -0.033572 0.000097 0.007034
v -0.032270 0.000067 0.007348
v -0.032202 0.000258 0.007348
v -0.032026 0.000633 0.007348
v -0.030968 0.000015 0.007419
v -0.030961 0.000207 0.007406
v -0.029724 0.000179 0.007348
v -0.028918 0.001494 0.007034
v -0.029868 0.000554 0.007348
v -0.028407 0.000107 0.007034
v -0.029665 -0.000028 0.007348
v -0.028366 -0.000092 0.007034
v -0.034443 0.000114 0.006565
v -0.033245 0.000085 0.005946
v -0.033572 0.000097 0.007034
v -0.032270 0.000067 0.007348
v -0.034748 0.000120 0.006012
v -0.032312 -0.001082 0.007348
v -0.032170 -0.001088 0.005930
v -0.033612 -0.001018 0.007034
v -0.030968 0.000015 0.005927
v -0.030988 -0.000555 0.005927
v -0.031009 -0.001126 0.005927
v -0.032128 0.000061 0.005930
v -0.030968 0.000015 0.007419
v -0.029665 -0.000028 0.007348
v -0.029808 -0.000023 0.005930
v -0.028366 -0.000092 0.007034
v -0.033245 0.000085 0.005946
v -0.032149 -0.000513 0.005930
v -0.032128 0.000061 0.005930
v -0.032170 -0.001088 0.005930
v -0.034787 -0.000955 0.006012
v -0.033285 -0.001030 0.005946
v -0.029850 -0.001172 0.005930
v -0.031011 -0.001126 0.007419
v -0.029707 -0.001177 0.007348
v -0.030968 0.000015 0.005927
v -0.031009 -0.001126 0.005927
v -0.033612 -0.001018 0.007034
v -0.034543 -0.001189 0.006565
v -0.034482 -0.000972 0.006565
v -0.034786 -0.000416 0.006012
v -0.033936 -0.003472 0.005848
v -0.008750 0.017023 0.007428
v -0.043019 0.016959 0.007428
v -0.031106 0.016981 0.007428
v -0.043019 0.016959 0.007428
v -0.043020 0.016959 0.000000
v -0.018102 0.017006 0.007428
v -0.008777 0.017023 0.007428
v 0.043019 0.017162 0.007428
v 0.043019 0.017162 0.007428
v 0.043020 0.017162 0.000000
v 0.018102 0.017098 0.007428
v 0.031107 0.017131 0.007428
vn -0.0000 -1.0000 -0.0000
vn -0.0000 0.9997 0.0249
vn -0.0000 1.0000 -0.0000
vn -1.0000 -0.0000 -0.0000
vn -0.0000 -0.9117 0.4108
vn -0.1571 -0.0543 0.9861
vn -0.3554 0.0138 0.9346
vn -0.3436 -0.0853 0.9352
vn -0.1405 -0.0683 0.9877
vn -0.0000 0.2613 0.9653
vn 1.0000 -0.0000 -0.0004
vn 1.0000 0.0001 -0.0001
vn -0.0000 -0.0000 1.0000
vn -1.0000 -0.0000 0.0002
vn -0.6036 -0.7666 0.2193
vn 0.0474 -0.9769 0.2084
vn 0.0506 -0.9767 0.2084
vn -0.6033 -0.7668 0.2193
vn 0.6918 -0.6889 0.2166
vn 0.6907 -0.6900 0.2165
vn -0.0000 -0.0001 1.0000
vn 0.7199 0.6587 0.2187
vn 0.9774 -0.0079 0.2111
vn 0.9774 -0.0077 0.2111
vn 0.7181 0.6607 0.2187
vn 0.0001 -0.0000 1.0000
vn -0.0001 -0.0000 1.0000
vn -0.9732 -0.0343 0.2275
vn -0.9730 -0.0381 0.2275
vn -0.0139 0.9747 0.2230
vn -0.7181 0.6607 0.2187
vn -0.7199 0.6587 0.2187
vn -0.0157 0.9747 0.2230
vn 0.0157 0.9747 0.2230
vn 0.0139 0.9747 0.2230
vn -0.6806 0.6980 0.2227
vn -0.6799 0.6987 0.2227
vn -0.0226 -0.9997 0.0030
vn -0.0320 -0.9995 0.0013
vn -0.0317 -0.9995 0.0013
vn -0.0223 -0.9997 0.0035
vn 1.0000 -0.0000 -0.0000
vn 1.0000 -0.0000 -0.0001
vn -0.0134 -0.3684 0.9296
vn -0.2734 -0.2512 0.9285
vn -0.5495 -0.5147 0.6581
vn -0.0274 -0.7495 0.6614
vn 0.0274 0.7495 0.6615
vn -0.5120 0.5523 0.6579
vn -0.2552 0.2703 0.9283
vn 0.0135 0.3684 0.9296
vn 0.1584 0.0625 0.9854
vn 0.3616 0.0408 0.9315
vn 0.3427 0.1106 0.9329
vn 0.1395 0.0707 0.9877
vn -0.1210 -0.1130 0.9862
vn -0.1454 -0.0595 0.9876
vn -0.3493 -0.0851 0.9331
vn 0.1210 -0.1129 0.9862
vn 0.0017 -0.0464 0.9989
vn 0.0057 -0.1591 0.9873
vn -0.0057 -0.1591 0.9873
vn 0.2520 -0.2709 0.9291
vn 0.1122 -0.1217 0.9862
vn 0.2712 0.2515 0.9291
vn 0.5457 0.5171 0.6594
vn 0.5120 0.5523 0.6579
vn -0.0274 0.7495 0.6615
vn -0.0135 0.3684 0.9296
vn 0.2552 0.2703 0.9283
vn -0.1208 0.1133 0.9862
vn -0.2712 0.2515 0.9291
vn -0.3450 0.0701 0.9360
vn -0.1439 0.0603 0.9878
vn -0.1122 -0.1217 0.9862
vn -0.7505 -0.0831 0.6557
vn -0.8614 0.0843 0.5008
vn -0.8712 -0.1593 0.4643
vn 0.8863 0.0454 0.4609
vn 0.6865 0.0608 0.7246
vn 0.7419 -0.1086 0.6616
vn 0.8897 -0.1378 0.4352
vn 0.1454 -0.0595 0.9876
vn -0.0017 -0.0464 0.9989
vn -0.0017 -0.0414 0.9991
vn -0.1618 -0.0487 0.9856
vn 0.1405 -0.0683 0.9877
vn 0.3436 -0.0853 0.9352
vn 0.3554 0.0138 0.9346
vn 0.1571 -0.0543 0.9861
vn 0.0504 -0.9987 0.0036
vn 0.0502 -0.9987 0.0031
vn 0.0496 -0.9988 0.0020
vn 0.8776 0.1948 0.4381
vn 0.6137 0.6668 0.4229
vn 0.7361 0.1512 0.6598
vn -0.6554 0.1546 0.7393
vn -0.8203 -0.0344 0.5709
vn 0.8203 -0.0345 0.5709
vn 0.9311 0.1537 0.3309
vn 0.9249 -0.2345 0.2994
vn 0.8203 -0.0344 0.5709
vn -0.0221 0.9997 0.0042
vn -0.0227 0.9997 0.0037
vn -0.0230 0.9997 0.0033
vn -0.0221 0.9997 0.0043
vn -0.0327 -0.8989 0.4370
vn 0.6089 -0.6717 0.4218
vn 0.5065 -0.5559 0.6591
vn -0.8461 0.0011 0.5330
vn -0.6154 -0.2333 0.7529
vn -0.7579 -0.0098 0.6523
vn 0.7579 -0.0098 0.6523
vn 0.6564 0.6252 0.4223
vn -0.8776 0.1948 0.4381
vn -0.7361 0.1512 0.6598
vn -0.6137 0.6668 0.4229
vn 0.8865 0.0020 0.4628
vn 0.6835 -0.0260 0.7295
vn 0.8765 0.0307 0.4804
vn 0.8765 0.0310 0.4804
vn -0.0285 -0.0014 0.9996
vn -0.0083 -0.0003 1.0000
vn -0.0287 -0.0010 0.9996
vn -0.0474 -0.9769 0.2084
vn 0.6036 -0.7666 0.2193
vn 0.6033 -0.7668 0.2193
vn -0.0506 -0.9767 0.2084
vn -0.0083 0.0003 1.0000
vn -0.0284 0.0010 0.9996
vn -0.0283 -0.0000 0.9996
vn -0.0430 0.0016 0.9991
vn -0.0431 -0.0006 0.9991
vn 0.0285 -0.0014 0.9996
vn 0.0435 -0.0023 0.9991
vn 0.0435 -0.0016 0.9991
vn 0.0287 -0.0010 0.9996
vn -0.0505 0.9987 0.0039
vn -0.0501 0.9987 0.0030
vn -0.0502 0.9987 0.0033
vn -0.0363 -0.9993 -0.0001
vn 0.0274 -0.7495 0.6614
vn -0.5065 -0.5559 0.6591
vn -0.6089 -0.6717 0.4218
vn 0.0327 -0.8989 0.4370
vn -0.3427 0.1106 0.9329
vn -0.6835 -0.0260 0.7295
vn -0.3616 0.0408 0.9315
vn -0.1124 0.1216 0.9862
vn 0.0058 0.1593 0.9872
vn -0.1584 0.0625 0.9854
vn -0.1395 0.0707 0.9877
vn 0.0014 0.0409 0.9992
vn 0.0017 0.0463 0.9989
vn 0.1124 0.1216 0.9862
vn -0.0059 0.1593 0.9872
vn -0.0016 0.0464 0.9989
vn 0.1629 0.0504 0.9854
vn 0.1439 0.0603 0.9878
vn 0.1208 0.1133 0.9862
vn 0.3450 0.0701 0.9360
vn -0.9453 0.0276 0.3250
vn 0.3535 -0.0299 0.9350
vn 0.6154 -0.2333 0.7529
vn -0.0317 0.9995 0.0013
vn -0.0320 0.9995 0.0012
vn 0.0222 -0.9997 0.0029
vn 0.0226 -0.9997 0.0030
vn 0.0220 -0.9998 0.0034
vn 0.0223 -0.9997 0.0035
vn 0.0501 0.9987 0.0030
vn 0.0502 0.9987 0.0033
vn 0.0413 0.9991 0.0011
vn 0.0410 0.9992 0.0010
vn -0.0505 0.9987 0.0038
vn -0.0411 -0.9992 0.0012
vn -0.0408 -0.9992 0.0012
vn -0.0502 -0.9987 0.0031
vn -0.0499 -0.9988 0.0025
vn 0.0504 -0.9987 0.0037
vn 0.0083 -0.0003 1.0000
vn 0.0285 -0.0007 0.9996
vn 0.0284 0.0010 0.9996
vn 0.0283 -0.0000 0.9996
vn 0.0431 -0.0006 0.9991
vn 0.0430 0.0016 0.9991
vn 0.0230 0.9997 0.0033
vn 0.0320 0.9995 0.0012
vn 0.0317 0.9995 0.0013
vn 0.0227 0.9997 0.0037
vn -0.0410 0.9992 0.0010
vn -0.0363 0.9993 -0.0000
vn -0.0413 0.9991 0.0011
vn 0.0363 0.9993 -0.0000
vn -0.3637 -0.0158 0.9314
vn -0.6865 0.0608 0.7246
vn -0.7419 -0.1086 0.6616
vn -0.8203 -0.0345 0.5709
vn 0.0326 0.8988 0.4372
vn -0.8863 0.0454 0.4609
vn -0.8897 -0.1378 0.4352
vn 0.8712 -0.1592 0.4645
vn 0.7505 -0.0832 0.6556
vn -0.5457 0.5171 0.6594
vn -0.0326 0.8988 0.4372
vn -0.6564 0.6252 0.4223
vn -1.0000 -0.0000 -0.0001
vn 0.0083 0.0003 1.0000
vn 1.0000 -0.0000 0.0002
vn -0.0014 0.0409 0.9992
vn -0.6918 -0.6889 0.2166
vn -0.6907 -0.6900 0.2165
vn -0.9774 -0.0079 0.2111
vn -0.9774 -0.0077 0.2111
vn 0.6799 0.6987 0.2227
vn 0.9730 -0.0381 0.2275
vn 0.9732 -0.0343 0.2275
vn 0.6806 0.6980 0.2227
vn 0.0002 0.0001 1.0000
vn -1.0000 0.0001 -0.0001
vn -1.0000 -0.0000 -0.0004
vn -0.2520 -0.2709 0.9291
vn 0.0134 -0.3684 0.9296
vn 0.3637 -0.0158 0.9314
vn 0.3493 -0.0851 0.9331
vn 0.1618 -0.0487 0.9856
vn 0.0017 -0.0414 0.9991
vn 0.5495 -0.5147 0.6581
vn 0.2734 -0.2512 0.9285
vn 0.8614 0.0843 0.5008
vn 0.6554 0.1546 0.7393
vn -0.0504 -0.9987 0.0036
vn 0.0283 0.0021 0.9996
vn 0.0223 0.9997 0.0039
vn 0.0221 0.9997 0.0043
vn -0.6594 -0.6220 0.4223
vn -0.8765 0.0307 0.4804
vn -0.8765 0.0310 0.4804
vn -0.8865 0.0020 0.4628
vn 0.0429 0.0037 0.9991
vn -0.0285 -0.0007 0.9996
vn -0.0283 0.0021 0.9996
vn -0.0429 0.0037 0.9991
vn 0.0505 0.9987 0.0039
vn 0.0505 0.9987 0.0038
vn 0.0435 -0.0008 0.9991
vn 0.6594 -0.6220 0.4223
vn -0.1629 0.0504 0.9854
vn -0.3535 -0.0299 0.9350
vn -0.0222 -0.9997 0.0029
vn 0.0317 -0.9995 0.0013
vn 0.0320 -0.9995 0.0013
vn -0.0220 -0.9998 0.0033
vn 0.0363 -0.9993 -0.0001
vn -0.0435 -0.0008 0.9991
vn -0.0435 -0.0016 0.9991
vn -0.0435 -0.0023 0.9991
vn 0.0408 -0.9992 0.0012
vn 0.0411 -0.9992 0.0012
vn -0.0002 0.0001 1.0000
vn 0.0285 -0.9992 -0.0285
vn -0.9794 -0.1678 0.1121
vn -0.1908 0.0079 0.9816
vt 0.377837 0.835430
vt 0.314688 0.835477
vt 0.314689 0.734294
vt 0.377837 0.734237
vt 0.259585 0.734237
vt 0.313919 0.734248
vt 0.313918 0.807481
vt 0.259585 0.807470
vt 0.695672 0.366904
vt 0.695620 0.212679
vt 0.758856 0.212709
vt 0.758856 0.366934
vt 0.823543 0.855645
vt 0.823544 0.781097
vt 0.853195 0.781075
vt 0.853195 0.855639
vt 0.313919 0.880713
vt 0.259585 0.880702
vt 0.910561 0.312841
vt 0.961769 0.304013
vt 0.961769 0.606872
vt 0.882222 0.582708
vt 0.822774 0.860736
vt 0.759625 0.860783
vt 0.759625 0.706558
vt 0.822774 0.706511
vt 0.228355 0.807802
vt 0.147628 0.807470
vt 0.147628 0.734237
vt 0.228355 0.734570
vt 0.758855 0.101598
vt 0.695620 0.101568
vt 0.695620 0.000385
vt 0.758854 0.000405
vt 0.567552 0.840557
vt 0.567696 0.851632
vt 0.566294 0.851392
vt 0.566200 0.840172
vt 0.000385 0.997525
vt 0.000385 0.734237
vt 0.073622 0.734237
vt 0.073622 0.997525
vt 0.146859 0.997525
vt 0.146859 0.734237
vt 0.882225 0.757355
vt 0.882227 0.607763
vt 0.910643 0.607641
vt 0.910643 0.757232
vt 0.823543 0.706549
vt 0.853195 0.706511
vt 0.492445 0.292374
vt 0.342840 0.292374
vt 0.342840 0.212692
vt 0.492651 0.212692
vt 0.820154 0.353708
vt 0.820154 0.557071
vt 0.759625 0.556811
vt 0.759625 0.353448
vt 0.758855 0.632270
vt 0.695620 0.632240
vt 0.695620 0.521129
vt 0.758856 0.521159
vt 0.428049 0.860301
vt 0.428049 0.836237
vt 0.441756 0.836527
vt 0.441755 0.858668
vt 0.651516 0.828006
vt 0.651516 0.801321
vt 0.665222 0.803144
vt 0.665222 0.827708
vt 0.492937 0.101883
vt 0.372465 0.126049
vt 0.378755 0.102057
vt 0.000385 0.212692
vt 0.000385 0.101574
vt 0.303811 0.102404
vt 0.315097 0.129594
vt 0.342785 0.000385
vt 0.368776 0.075268
vt 0.342774 0.065663
vt 0.475934 0.851844
vt 0.478451 0.827482
vt 0.492259 0.827450
vt 0.489526 0.853928
vt 0.681723 0.738465
vt 0.663635 0.768448
vt 0.631122 0.753837
vt 0.651084 0.734237
vt 0.455653 0.738465
vt 0.473741 0.768448
vt 0.442525 0.757132
vt 0.487807 0.800552
vt 0.507259 0.780897
vt 0.442525 0.783445
vt 0.461862 0.800077
vt 0.506255 0.753837
vt 0.611682 0.829929
vt 0.615802 0.800036
vt 0.629348 0.802210
vt 0.625557 0.829715
vt 0.537610 0.761769
vt 0.538122 0.734237
vt 0.551748 0.736395
vt 0.551275 0.761727
vt 0.474626 0.828620
vt 0.475099 0.853701
vt 0.461473 0.855892
vt 0.460961 0.828634
vt 0.461473 0.801321
vt 0.475099 0.803499
vt 0.695620 0.733423
vt 0.758854 0.733463
vt 0.608131 0.747050
vt 0.608224 0.756566
vt 0.596178 0.755300
vt 0.598887 0.744219
vt 0.342862 0.141975
vt 0.316168 0.075008
vt 0.933430 0.009212
vt 0.961769 0.279080
vt 0.882222 0.303244
vt 0.882222 0.000385
vt 0.881453 0.343014
vt 0.820923 0.342754
vt 0.820923 0.000385
vt 0.881453 0.000645
vt 0.695706 0.845390
vt 0.695706 0.734280
vt 0.758855 0.734232
vt 0.758855 0.845343
vt 0.882222 0.906431
vt 0.910643 0.906309
vt 0.193750 0.366926
vt 0.000385 0.366926
vt 0.492017 0.441479
vt 0.492016 0.441707
vt 0.491867 0.521161
vt 0.342840 0.521161
vt 0.342840 0.441479
vt 0.600394 0.829497
vt 0.592901 0.812491
vt 0.598431 0.807282
vt 0.608224 0.829495
vt 0.508028 0.764333
vt 0.517826 0.742112
vt 0.523388 0.747329
vt 0.515892 0.764332
vt 0.508271 0.814649
vt 0.508139 0.803556
vt 0.509927 0.804026
vt 0.509917 0.815170
vt 0.694851 0.733468
vt 0.491469 0.733468
vt 0.491660 0.631968
vt 0.694851 0.632278
vt 0.584603 0.820299
vt 0.581057 0.818790
vt 0.581420 0.807798
vt 0.562652 0.820247
vt 0.566228 0.829443
vt 0.558597 0.829451
vt 0.588658 0.829503
vt 0.592895 0.846500
vt 0.584604 0.838699
vt 0.523392 0.781328
vt 0.517829 0.786537
vt 0.527043 0.803534
vt 0.536841 0.825755
vt 0.528977 0.825754
vt 0.521480 0.808750
vt 0.513164 0.834951
vt 0.521477 0.842750
vt 0.509823 0.847534
vt 0.510017 0.836291
vt 0.562652 0.838648
vt 0.486292 0.734237
vt 0.854393 0.766750
vt 0.859199 0.764542
vt 0.861010 0.766167
vt 0.659995 0.833524
vt 0.665222 0.834217
vt 0.664885 0.836030
vt 0.658275 0.835404
vt 0.566198 0.818739
vt 0.581028 0.829495
vt 0.579680 0.829492
vt 0.579704 0.818397
vt 0.581056 0.840224
vt 0.580962 0.851444
vt 0.579560 0.851684
vt 0.579703 0.840609
vt 0.575796 0.736874
vt 0.581084 0.747034
vt 0.571821 0.744308
vt 0.853965 0.831621
vt 0.854289 0.812482
vt 0.860908 0.813829
vt 0.860584 0.831017
vt 0.853964 0.765171
vt 0.858806 0.759983
vt 0.860368 0.759816
vt 0.854600 0.732579
vt 0.853964 0.726524
vt 0.855769 0.727815
vt 0.856159 0.732390
vt 0.589436 0.796058
vt 0.585414 0.788653
vt 0.594672 0.785838
vt 0.594157 0.798650
vt 0.578645 0.823338
vt 0.577924 0.847780
vt 0.571688 0.845850
vt 0.572351 0.823400
vt 0.677892 0.850301
vt 0.672661 0.849639
vt 0.673083 0.848371
vt 0.861000 0.707877
vt 0.860578 0.725886
vt 0.854383 0.706511
vt 0.860908 0.805423
vt 0.854289 0.804820
vt 0.853964 0.787631
vt 0.860584 0.786285
vt 0.855671 0.833201
vt 0.860908 0.832601
vt 0.854584 0.837910
vt 0.856152 0.837740
vt 0.629211 0.747205
vt 0.629348 0.756720
vt 0.624455 0.756724
vt 0.624455 0.747207
vt 0.413572 0.860161
vt 0.413572 0.836237
vt 0.427279 0.837900
vt 0.427280 0.859914
vt 0.613893 0.776500
vt 0.613894 0.786017
vt 0.609138 0.786015
vt 0.608993 0.776505
vt 0.613896 0.799267
vt 0.609314 0.798838
vt 0.609130 0.747205
vt 0.609305 0.734395
vt 0.613882 0.734237
vt 0.613886 0.747207
vt 0.589258 0.736857
vt 0.594556 0.747040
vt 0.585282 0.744292
vt 0.608224 0.766453
vt 0.595538 0.766392
vt 0.688557 0.825861
vt 0.687893 0.803212
vt 0.694129 0.801321
vt 0.694851 0.825979
vt 0.535250 0.734237
vt 0.534941 0.742605
vt 0.536841 0.734712
vt 0.536729 0.742134
vt 0.531703 0.755129
vt 0.527643 0.764335
vt 0.536597 0.753228
vt 0.534951 0.753748
vt 0.536639 0.764327
vt 0.535000 0.764331
vt 0.513166 0.816550
vt 0.517225 0.825756
vt 0.509868 0.825753
vt 0.536599 0.775440
vt 0.534851 0.774869
vt 0.531705 0.773529
vt 0.535045 0.786113
vt 0.598430 0.851706
vt 0.679697 0.849010
vt 0.536731 0.786519
vt 0.536841 0.793942
vt 0.535515 0.794889
vt 0.582705 0.777589
vt 0.594769 0.776321
vt 0.575977 0.796036
vt 0.581203 0.785800
vt 0.580694 0.798607
vt 0.571959 0.788642
vt 0.567628 0.785810
vt 0.558354 0.788547
vt 0.555712 0.777464
vt 0.567782 0.776318
vt 0.593964 0.734237
vt 0.613886 0.766616
vt 0.618751 0.766613
vt 0.618786 0.776503
vt 0.609028 0.766610
vt 0.596109 0.777505
vt 0.608163 0.776345
vt 0.608012 0.785848
vt 0.598749 0.788589
vt 0.580495 0.734237
vt 0.613887 0.756724
vt 0.608993 0.756720
vt 0.618786 0.756719
vt 0.618642 0.747208
vt 0.624447 0.786017
vt 0.629203 0.786015
vt 0.629028 0.798838
vt 0.624445 0.799267
vt 0.567744 0.747043
vt 0.567841 0.756555
vt 0.555777 0.755277
vt 0.558486 0.744222
vt 0.594710 0.756543
vt 0.594769 0.766435
vt 0.582065 0.766478
vt 0.582640 0.755384
vt 0.555137 0.766378
vt 0.567841 0.766433
vt 0.509618 0.795659
vt 0.579556 0.807308
vt 0.579414 0.799884
vt 0.581277 0.799428
vt 0.679062 0.855064
vt 0.677503 0.854876
vt 0.687124 0.824974
vt 0.680893 0.825100
vt 0.680466 0.803385
vt 0.686662 0.801321
vt 0.655786 0.833524
vt 0.657506 0.835404
vt 0.650896 0.836030
vt 0.650559 0.834217
vt 0.658893 0.828776
vt 0.660459 0.828962
vt 0.853964 0.739698
vt 0.860581 0.740282
vt 0.861010 0.757691
vt 0.854395 0.759047
vt 0.500601 0.847657
vt 0.501027 0.825707
vt 0.507259 0.825773
vt 0.506797 0.849682
vt 0.939833 0.906431
vt 0.911412 0.906309
vt 0.911412 0.757232
vt 0.939831 0.757355
vt 0.822774 0.971846
vt 0.759625 0.971894
vt 0.695706 0.999615
vt 0.758855 0.999568
vt 0.258816 0.883347
vt 0.229124 0.883333
vt 0.229124 0.808785
vt 0.258816 0.808799
vt 0.694851 0.101574
vt 0.694851 0.212692
vt 0.624449 0.776500
vt 0.619555 0.776503
vt 0.619591 0.766613
vt 0.624455 0.766616
vt 0.000385 0.521161
vt 0.881453 0.353448
vt 0.881453 0.695817
vt 0.820923 0.696077
vt 0.820923 0.353708
vt 0.489451 0.801321
vt 0.475868 0.803440
vt 0.629348 0.855042
vt 0.615798 0.857456
vt 0.508229 0.825749
vt 0.368776 0.658584
vt 0.342785 0.733468
vt 0.342774 0.668190
vt 0.316168 0.658844
vt 0.372465 0.607803
vt 0.378755 0.631795
vt 0.632925 0.801321
vt 0.646509 0.803440
vt 0.643925 0.827482
vt 0.630117 0.827450
vt 0.646443 0.851844
vt 0.632850 0.853928
vt 0.649569 0.800552
vt 0.675514 0.800077
vt 0.630117 0.780897
vt 0.694851 0.757132
vt 0.694851 0.783445
vt 0.442525 0.856327
vt 0.446316 0.831000
vt 0.460191 0.831214
vt 0.456076 0.858741
vt 0.551748 0.786618
vt 0.538122 0.788832
vt 0.442525 0.803495
vt 0.456071 0.801321
vt 0.679697 0.826428
vt 0.665991 0.828227
vt 0.665991 0.801321
vt 0.679697 0.801661
vt 0.492445 0.366926
vt 0.694851 0.366926
vt 0.694851 0.521161
vt 0.315097 0.604258
vt 0.303811 0.631448
vt 0.000385 0.632278
vt 0.228355 0.881035
vt 0.147628 0.880702
vt 0.441756 0.734237
vt 0.441754 0.835430
vt 0.378606 0.835468
vt 0.378606 0.734285
vt 0.342862 0.591877
vt 0.492445 0.441479
vt 0.759625 0.352679
vt 0.759625 0.202278
vt 0.820154 0.202018
vt 0.820154 0.352419
vt 0.911412 0.607641
vt 0.939829 0.607763
vt 0.554360 0.846448
vt 0.546862 0.829445
vt 0.567700 0.807257
vt 0.565836 0.807746
vt 0.565978 0.799376
vt 0.567841 0.799832
vt 0.527039 0.847958
vt 0.567552 0.818345
vt 0.567576 0.829440
vt 0.581015 0.859950
vt 0.539032 0.829443
vt 0.548825 0.807230
vt 0.554355 0.812439
vt 0.548826 0.851654
vt 0.855775 0.738074
vt 0.861010 0.738703
vt 0.567841 0.859053
vt 0.566241 0.859898
vt 0.602724 0.796027
vt 0.607424 0.798659
vt 0.619691 0.786019
vt 0.856168 0.733515
vt 0.854606 0.733348
vt 0.860579 0.785515
vt 0.853964 0.784160
vt 0.579414 0.859105
vt 0.562508 0.736823
vt 0.567229 0.734237
vt 0.577925 0.799428
vt 0.571688 0.801440
vt 0.861000 0.727153
vt 0.656888 0.828776
vt 0.858721 0.811542
vt 0.859202 0.807003
vt 0.860288 0.811713
vt 0.672661 0.830363
vt 0.679278 0.828996
vt 0.619862 0.798829
vt 0.619699 0.747208
vt 0.619555 0.756719
vt 0.618650 0.786019
vt 0.618479 0.798829
vt 0.562329 0.795976
vt 0.567036 0.798598
vt 0.618465 0.734395
vt 0.687893 0.847586
vt 0.694130 0.849634
vt 0.500601 0.803247
vt 0.506796 0.801321
vt 0.853964 0.806404
vt 0.508269 0.836861
vt 0.508028 0.796134
vt 0.508137 0.847940
vt 0.509354 0.856311
vt 0.602906 0.736816
vt 0.569249 0.777572
vt 0.581296 0.776288
vt 0.607622 0.734237
vt 0.686661 0.849643
vt 0.680466 0.847759
vt 0.629313 0.766610
vt 0.629348 0.776505
vt 0.568610 0.766490
vt 0.581296 0.766410
vt 0.619876 0.734395
vt 0.624460 0.734237
vt 0.629036 0.734395
vt 0.581235 0.756526
vt 0.569181 0.755385
vt 0.657169 0.855041
vt 0.650559 0.853677
vt 0.508028 0.855363
vt 0.655322 0.828962
vt 0.658611 0.855041
vt 0.665222 0.853677
vt 0.229124 0.734237
vt 0.258816 0.734251
vt 0.820154 0.705742
vt 0.759625 0.705482
vt 0.694851 0.000385
vt 0.493200 0.000385
vt 0.759625 0.000645
vt 0.820154 0.000385
vt 0.554368 0.734237
vt 0.000385 0.000385
vt 0.000385 0.733468
s 0
usemtl Main
f 291/1/1 290/2/1 292/3/1 293/4/1
f 10/5/2 24/6/2 11/7/2 12/8/2
f 7/9/3 48/10/3 9/11/3 8/12/3
f 39/13/1 242/14/1 40/15/1 41/16/1
f 11/7/2 26/17/2 25/18/2 12/8/2
f 27/19/4 30/20/4 28/21/4 29/22/4
f 90/23/1 94/24/1 91/25/1 92/26/1
f 22/27/5 21/28/5 34/29/5 35/30/5
f 49/31/3 83/32/3 84/33/3 85/34/3
s 1
f 139/35/6 138/36/7 132/37/8 133/38/9
s 0
f 17/39/10 33/40/10 18/41/10 19/42/10
f 31/43/10 19/42/10 18/41/10 32/44/10
s 1
f 304/45/11 303/46/11 302/47/11 230/48/12
s 0
f 40/15/1 242/14/1 243/49/1 244/50/1
f 102/51/13 43/52/13 42/53/13 432/54/13
f 249/55/14 426/56/14 425/57/14 251/58/14
f 2/59/3 6/60/3 4/61/3 5/62/3
s 1
f 282/63/15 252/64/16 253/65/17 254/66/18
f 284/67/16 283/68/19 267/69/20 285/70/17
s 0
f 433/71/13 432/54/13 42/53/13 87/72/13 57/73/13
f 99/74/13 101/75/13 89/76/13 100/77/13 42/53/13
f 59/78/21 58/79/21 61/80/21
s 1
f 257/81/22 266/82/23 265/83/24 255/84/25
s 0
f 271/85/13 269/86/13 270/87/13 268/88/13
f 67/89/13 66/90/13 68/91/13
f 69/92/26 66/90/26 70/93/26
f 71/94/13 66/90/13 72/95/13
f 66/90/13 71/94/13 68/91/13
f 66/90/13 69/92/13 72/95/13
f 66/90/27 65/96/27 70/93/27
s 1
f 279/97/28 282/98/15 254/99/18 280/100/29
f 76/101/30 63/102/31 53/103/32 77/104/33
f 277/105/34 257/106/22 255/107/25 256/108/35
f 256/108/35 281/109/36 278/110/37 277/105/34
s 0
f 1/111/3 6/60/3 2/59/3 3/112/3
s 1
f 391/113/38 401/114/39 393/115/40 392/116/41
s 0
f 87/72/13 42/53/13 88/117/13
f 60/118/13 59/78/13 61/80/13
f 13/119/42 16/120/42 14/121/42 15/122/42
f 298/123/14 301/124/14 250/125/14 299/126/14
f 240/127/1 290/128/1 289/129/1 238/130/1
f 229/131/43 304/45/43 230/48/43 231/132/43
f 99/74/13 42/53/13 43/52/13 245/133/13 246/134/13
f 422/135/13 428/136/13 427/137/13 248/138/13 297/139/13
f 42/53/13 100/77/13 88/117/13
f 48/10/3 83/32/3 49/31/3 9/11/3
f 5/62/3 4/61/3 7/9/3 8/12/3
s 1
f 321/140/44 317/141/45 322/142/46 323/143/47
f 310/144/48 308/145/49 306/146/50 305/147/51
f 185/148/52 182/149/53 181/150/54 184/151/55
s 0
f 258/152/13 423/153/13 424/154/13 260/155/13
s 1
f 315/156/56 313/157/57 312/158/58 317/141/45
f 123/159/59 122/160/60 124/161/61
f 318/162/62 315/156/56 317/141/45 321/140/44
f 318/162/62 321/140/44 320/163/63 319/164/64
f 305/147/51 385/165/65 309/166/66 310/144/48
f 116/167/67 178/168/68 112/169/69 115/170/70
f 191/171/71 114/172/72 192/173/73 189/174/74
f 131/175/75 122/160/60 133/38/9
s 0
f 66/90/13 67/89/13 64/176/13 65/96/13
s 1
f 134/177/76 135/178/77 136/179/78
f 224/180/79 223/181/80 222/182/81 225/183/82
f 122/160/60 123/159/59 120/184/83
f 122/160/60 131/175/75 124/161/61
f 313/157/57 316/185/84 314/186/85 311/187/86
f 326/188/87 325/189/88 330/190/89 331/191/90
f 140/192/91 141/193/92 142/194/93
f 158/195/94 179/196/95 116/197/67 159/198/96
f 135/178/77 134/177/76 137/199/97
f 135/178/77 143/200/98 144/201/98
f 135/178/77 144/201/98 136/179/78
f 342/202/99 352/203/100 343/204/101 344/205/102
f 148/206/103 149/207/104 150/208/105
f 148/206/103 150/208/105 151/209/106
f 349/210/107 341/211/108 324/212/109 323/213/47
f 146/214/110 154/215/111 155/216/112
f 309/217/66 350/218/113 352/203/100 353/219/114
f 361/220/115 360/221/116 308/222/49 362/223/117
f 160/224/118 159/198/96 161/225/119
f 160/224/118 162/226/120 158/195/94
f 160/224/118 163/227/121 162/226/120
f 211/228/122 213/229/123 212/230/123 172/231/124
f 50/232/125 79/233/126 51/234/127 52/235/128
f 337/236/129 364/237/130 365/238/131 366/239/129
f 364/237/130 367/240/132 368/241/133 365/238/131
f 406/242/134 374/243/135 372/244/136 373/245/137
f 174/246/138 175/247/139 176/248/140
f 401/114/39 415/249/141 402/250/141 393/115/40
f 129/251/142 128/252/143 152/253/144 153/254/145
f 308/145/49 360/255/116 375/256/146 306/146/50
f 360/255/116 377/257/147 378/258/148 375/256/146
f 159/198/96 160/224/118 158/195/94
f 306/146/50 381/259/149 307/260/150 305/147/51
f 375/256/146 378/258/148 379/261/151 380/262/152
f 319/164/64 320/163/63 325/189/88 326/188/87
f 380/262/152 379/261/151 382/263/153 383/264/154
f 186/265/155 183/266/156 187/267/157
f 382/263/153 388/268/158 384/269/159 383/264/154
f 307/260/150 386/270/160 385/165/65 305/147/51
f 187/267/157 191/171/71 189/174/74
f 187/267/157 184/151/55 186/265/155
f 386/270/160 384/269/159 387/271/161 385/165/65
f 191/171/71 187/267/157 183/266/156
f 323/143/47 324/272/109 320/163/63 321/140/44
f 155/216/112 147/273/162 146/214/110
f 389/274/163 351/275/164 350/276/113 387/271/161
f 150/208/105 149/207/104 219/277/165 216/278/166
f 197/279/167 196/280/168 198/281/169
f 196/280/168 197/279/167 194/282/170
f 370/283/171 397/284/172 395/285/173 396/286/174
f 175/247/139 174/246/138 200/287/175
f 337/236/129 399/288/13 400/289/13 335/290/129
f 337/236/129 366/239/129 398/291/13 399/288/13
f 403/292/176 402/250/141 415/249/141 404/293/177
f 333/294/178 405/295/179 403/292/176 404/293/177
f 141/193/92 140/192/91 210/296/180
f 406/242/134 373/245/137 407/297/181 408/298/181
f 407/297/181 399/288/13 398/291/13 408/298/181
f 400/289/13 399/288/13 407/297/181 409/299/181
f 407/297/181 373/245/137 411/300/182 409/299/181
f 166/301/183 169/302/184 170/303/185 168/304/186
f 346/305/187 412/306/188 414/307/189 347/308/190
f 221/309/191 218/310/192 217/311/192 199/312/193
f 396/286/174 395/285/173 413/313/194 416/314/194
f 116/167/67 115/170/70 181/150/54 159/315/96
f 417/316/195 419/317/196 418/318/197 312/158/58
f 145/319/198 156/320/98 146/214/110 147/273/162
f 376/321/199 310/322/48 309/323/66 353/324/114
f 356/325/200 355/326/201 418/327/197 419/328/196
f 224/180/79 226/329/120 227/330/121
f 340/331/202 327/332/203 324/333/109 341/334/108
f 113/335/204 178/336/68 180/337/205 157/338/206
f 225/183/82 226/329/120 224/180/79
s 0
f 36/339/207 109/340/207 37/341/207 38/342/207
f 93/343/1 95/344/1 94/24/1 90/23/1
f 91/345/1 240/127/1 238/130/1 239/346/1
f 232/347/3 237/348/3 233/349/3 234/350/3
f 432/54/13 433/71/13 86/351/13 105/352/13
s 1
f 165/353/208 205/354/208 202/355/13 203/356/13
s 0
f 297/139/13 248/138/13 247/357/13 246/134/13 245/133/13
f 45/358/209 108/359/209 106/360/209 107/361/209
s 1
f 283/362/19 265/83/24 266/82/23 267/363/20
f 278/364/37 281/365/36 279/97/28 280/100/29
f 188/366/210 185/148/52 184/151/55 187/267/157
s 0
f 261/367/21 262/368/21 263/369/21
f 262/368/13 264/370/13 263/369/13
f 286/371/13 248/138/13 427/137/13 424/154/13 259/372/13
s 1
f 80/373/211 62/374/212 55/375/213 54/376/214
f 53/377/32 63/378/31 54/376/214 55/375/213
f 322/142/46 317/141/45 312/158/58 418/318/197
s 0
f 272/379/13 269/86/13 273/380/13
f 269/86/27 272/379/27 274/381/27
f 269/86/26 274/381/26 270/87/26
f 269/86/13 271/85/13 275/382/13
f 269/86/13 276/383/13 273/380/13
f 276/383/13 269/86/13 275/382/13
s 1
f 73/384/215 78/385/216 74/386/217 75/387/218
f 73/388/215 75/389/218 76/101/30 77/104/33
f 51/390/127 79/391/126 74/386/217 78/385/216
f 62/392/212 80/393/211 81/394/125 82/395/128
s 0
f 427/137/219 104/396/219 103/397/219 287/398/219
f 247/357/13 248/138/13 294/399/13 288/400/13 296/401/13
f 22/27/5 23/402/5 20/403/5 21/28/5
f 96/404/1 98/405/1 97/406/1 95/407/1
f 294/399/13 248/138/13 295/408/13
f 241/409/13 428/136/13 422/135/13
f 248/138/13 286/371/13 295/408/13
f 424/154/13 423/153/13 262/368/13 261/367/13 259/372/13
f 47/410/209 431/411/209 430/412/209 45/413/209
s 1
f 37/341/220 111/414/221 110/415/221 38/342/221
f 124/161/61 131/175/75 126/416/222 127/417/223
f 119/418/224 118/419/225 222/420/81 223/421/80
f 112/169/69 178/168/68 113/422/204 114/172/72
f 117/423/226 120/184/83 118/419/225 119/418/224
f 120/184/83 117/423/226 121/424/227 122/160/60
f 315/156/56 316/185/84 313/157/57
f 325/189/88 320/163/63 324/272/109 327/425/203
f 318/162/62 319/164/64 316/185/84
f 183/266/156 112/169/69 114/172/72 191/171/71
f 186/265/155 115/170/70 112/169/69 183/266/156
f 127/417/223 129/426/142 130/427/228 125/428/229
f 127/417/223 126/416/222 128/429/143 129/426/142
f 131/175/75 133/38/9 132/37/8 126/416/222
f 327/332/203 328/430/230 329/431/231
f 137/432/97 134/433/76 132/37/8 138/36/7
f 121/424/227 139/35/6 133/38/9 122/160/60
f 316/185/84 315/156/56 318/162/62
f 311/187/86 417/316/195 312/158/58 313/157/57
f 326/188/87 316/185/84 319/164/64
f 332/434/232 333/294/178 334/435/232
f 164/436/233 205/354/208 165/353/208 166/301/183
f 338/437/102 328/430/230 339/438/102
f 328/430/230 327/332/203 340/331/202
f 136/179/78 152/439/144 128/440/143 134/177/76
f 340/331/202 339/438/102 328/430/230
f 329/441/231 330/190/89 325/189/88 327/425/203
f 345/442/234 346/305/187 347/308/190
f 348/443/235 346/305/187 345/442/234
f 128/429/143 126/416/222 132/37/8 134/433/76
f 421/444/236 349/210/107 323/213/47 322/445/46
f 343/204/101 350/218/113 351/446/164
f 331/191/90 314/186/85 316/185/84 326/188/87
f 352/203/100 350/218/113 343/204/101
f 354/447/237 355/326/201 356/325/200
f 357/448/238 358/449/239 359/450/237
f 358/449/239 360/221/116 361/220/115
f 147/273/162 155/216/112 113/451/204 157/452/206
f 361/220/115 359/450/237 358/449/239
f 167/453/240 164/436/233 166/301/183 168/304/186
f 214/454/241 172/231/124 212/230/123 215/455/123
f 367/240/132 364/237/130 336/456/242 363/457/243
f 369/458/244 370/283/171 371/459/245
f 373/245/137 372/244/136 410/460/246 411/300/182
f 130/461/228 129/251/142 153/254/145 228/462/247
f 375/256/146 380/262/152 381/259/149 306/146/50
f 116/463/67 179/464/95 180/337/205 178/336/68
f 360/221/116 358/449/239 377/465/147
f 123/159/59 125/428/229 118/419/225 120/184/83
f 388/268/158 389/274/163 387/271/161 384/269/159
f 181/150/54 115/170/70 186/265/155 184/151/55
f 188/366/210 187/267/157 189/174/74 190/466/248
f 381/259/149 383/264/154 307/260/150
f 159/315/96 181/150/54 182/149/53 161/467/119
f 383/264/154 386/270/160 307/260/150
f 383/264/154 381/259/149 380/262/152
f 386/270/160 383/264/154 384/269/159
f 387/271/161 350/276/113 309/166/66 385/165/65
f 190/466/248 189/174/74 192/173/73 193/468/249
f 192/173/73 114/172/72 113/422/204 155/469/112
f 390/470/250 391/113/38 392/116/41
f 195/471/251 206/472/252 196/280/168 194/282/170
f 391/113/38 390/470/250 394/473/253
f 376/321/199 362/474/117 308/475/49 310/322/48
f 370/283/171 369/458/244 397/284/172
f 202/355/13 215/455/123 212/230/123 203/356/13
f 165/353/208 203/356/13 204/476/13 201/477/208
f 206/472/252 195/471/251 207/478/254 208/479/254
f 175/247/139 221/309/191 199/312/193 176/248/140
f 333/294/178 332/434/232 405/295/179
f 201/477/208 169/302/184 166/301/183 165/353/208
f 364/237/130 337/236/129 335/290/129 336/456/242
f 204/476/13 203/356/13 212/230/123 213/229/123
f 214/454/241 177/480/255 173/481/256 172/231/124
f 171/482/257 211/228/122 172/231/124 173/481/256
f 216/278/166 219/277/165 217/311/192 218/310/192
f 141/193/92 220/483/258 209/484/259 142/194/93
f 207/478/254 209/484/259 220/483/258 208/479/254
f 412/306/188 416/314/194 413/313/194 414/307/189
f 124/161/61 127/417/223 125/428/229 123/159/59
f 355/326/201 421/485/236 322/486/46 418/327/197
f 192/173/73 155/469/112 154/487/111 193/468/249
f 356/325/200 420/488/238 354/447/237
f 118/419/225 125/428/229 130/427/228 222/420/81
f 228/489/247 225/183/82 222/182/81 130/490/228
s 0
f 233/349/3 236/491/3 235/492/3 234/350/3
f 425/57/14 426/56/14 300/493/14 250/494/14
f 103/397/260 104/396/260 432/54/260 105/352/260
f 56/495/13 86/351/13 433/71/13 429/496/13
f 430/412/209 431/411/209 46/497/209 44/498/209
f 427/137/13 287/398/13 260/155/13 424/154/13
f 97/499/3 101/499/261 89/499/262 95/499/263
f 433/71/13 57/73/13 58/79/13 59/78/13 429/496/13
f 59/78/13 60/118/13 89/76/13 101/75/13 95/75/13 108/500/13 97/500/13 45/78/13
f 264/370/13 262/368/13 292/501/13 290/401/13 296/401/13 288/400/13
l 104 241
l 102 104
